<?xml version="1.0" encoding="utf-8"?>
<!-- Generator: Adobe Illustrator 16.0.0, SVG Export Plug-In . SVG Version: 6.00 Build 0)  -->
<!DOCTYPE svg PUBLIC "-//W3C//DTD SVG 1.1//EN" "http://www.w3.org/Graphics/SVG/1.1/DTD/svg11.dtd">
<svg version="1.1" id="Layer_1" xmlns="http://www.w3.org/2000/svg" xmlns:xlink="http://www.w3.org/1999/xlink" x="0px" y="0px"
	 width="60px" height="60px" viewBox="0 0 60 60" enable-background="new 0 0 60 60" xml:space="preserve">
<circle fill="#FFFFFF" cx="29.979" cy="29.762" r="22.619"/>
<g>
	<linearGradient id="SVGID_1_" gradientUnits="userSpaceOnUse" x1="0" y1="30" x2="60" y2="30">
		<stop  offset="0" style="stop-color:#ffae5a"/>
		<stop  offset="1" style="stop-color:#ffae5a"/>
	</linearGradient>
	<path fill="url(#SVGID_1_)" d="M30,60C13.458,60,0,46.542,0,30S13.458,0,30,0s30,13.458,30,30S46.542,60,30,60z M30,3.333
		C15.296,3.333,3.333,15.296,3.333,30S15.296,56.667,30,56.667c14.704,0,26.667-11.963,26.667-26.667S44.704,3.333,30,3.333z"/>
</g>
<linearGradient id="SVGID_2_" gradientUnits="userSpaceOnUse" x1="17.0259" y1="29.4087" x2="45.1152" y2="29.4087">
	<stop  offset="0" style="stop-color:#ffae5a"/>
	<stop  offset="1" style="stop-color:#ffae5a"/>
</linearGradient>
<linearGradient id="SVGID_3_" gradientUnits="userSpaceOnUse" x1="16.0259" y1="29.396" x2="46.1152" y2="29.396">
	<stop  offset="0" style="stop-color:#ffae5a"/>
	<stop  offset="1" style="stop-color:#ffae5a"/>
</linearGradient>
<path opacity="0.2" fill="url(#SVGID_2_)" stroke="url(#SVGID_3_)" stroke-width="2" stroke-miterlimit="10" d="M20.667,21.698
	c1.952-1.312,4.22-2.216,6.58-2.359c0.074,0.098,0.149,0.204,0.226,0.302c-1.342,0.377-2.653,0.867-3.882,1.522
	c-0.836,0.452-1.643,0.965-2.336,1.613c1.296-0.844,2.759-1.409,4.258-1.786c3.074-0.761,6.309-0.859,9.436-0.399
	c2.133,0.339,4.297,0.927,6.066,2.208c-0.346-0.347-0.768-0.61-1.175-0.882c-1.644-1.024-3.444-1.778-5.306-2.275
	c0.128-0.105,0.256-0.204,0.377-0.302c2.344,0.143,4.597,1.033,6.533,2.329c0.121,0.075,0.242,0.158,0.303,0.293
	c0.941,1.869,1.672,3.844,2.238,5.864c0.715,2.616,1.145,5.321,1.131,8.034c-0.438,0.732-1.08,1.326-1.758,1.846
	c-1.574,1.191-3.563,1.742-5.523,1.764c-0.527-0.623-1.055-1.25-1.574-1.875c1.695-0.469,3.293-1.447,4.279-2.926
	c-1.605,1.441-3.73,2.127-5.817,2.512c-2.946,0.496-6.022,0.406-8.908-0.424c-1.446-0.42-2.856-1.076-3.986-2.094
	c0.964,1.477,2.562,2.418,4.22,2.932c-0.572,0.625-1.152,1.258-1.733,1.885c-1.959-0.023-3.949-0.582-5.524-1.773
	c-0.641-0.473-1.213-1.039-1.673-1.695c-0.128-0.143-0.083-0.346-0.083-0.52c0.053-3.324,0.708-6.618,1.786-9.753
	c0.452-1.304,0.979-2.592,1.613-3.821C20.485,21.818,20.583,21.758,20.667,21.698 M26.289,28.375
	c-1.018,0.113-1.877,0.942-2.111,1.929c-0.278,1.047,0.129,2.254,1.033,2.872c0.58,0.416,1.349,0.543,2.027,0.34
	c0.761-0.219,1.371-0.836,1.643-1.574c0.362-0.952,0.135-2.104-0.572-2.835C27.796,28.563,27.027,28.277,26.289,28.375
	 M35.008,28.375c-0.482,0.053-0.934,0.271-1.296,0.588c-0.874,0.753-1.138,2.096-0.664,3.143c0.393,0.928,1.38,1.592,2.397,1.508
	c0.866-0.045,1.658-0.617,2.035-1.395c0.49-0.963,0.338-2.223-0.385-3.03C36.583,28.594,35.784,28.277,35.008,28.375L35.008,28.375z
	"/>
<linearGradient id="SVGID_4_" gradientUnits="userSpaceOnUse" x1="17.0259" y1="29.4092" x2="45.1152" y2="29.4092">
	<stop  offset="0" style="stop-color:#ffae5a"/>
	<stop  offset="1" style="stop-color:#ffae5a"/>
</linearGradient>
<linearGradient id="SVGID_5_" gradientUnits="userSpaceOnUse" x1="16.5259" y1="29.4023" x2="45.6152" y2="29.4023">
	<stop  offset="0" style="stop-color:#ffae5a"/>
	<stop  offset="1" style="stop-color:#ffae5a"/>
</linearGradient>
<path opacity="0.2" fill="url(#SVGID_4_)" stroke="url(#SVGID_5_)" stroke-miterlimit="10" d="M20.667,21.699
	c1.952-1.312,4.22-2.216,6.58-2.359c0.074,0.098,0.149,0.204,0.226,0.302c-1.342,0.377-2.653,0.867-3.882,1.522
	c-0.836,0.452-1.643,0.965-2.336,1.613c1.296-0.844,2.759-1.409,4.258-1.786c3.074-0.761,6.309-0.859,9.436-0.399
	c2.133,0.339,4.297,0.927,6.066,2.208c-0.346-0.347-0.768-0.61-1.175-0.882c-1.644-1.024-3.444-1.778-5.306-2.275
	c0.128-0.105,0.256-0.204,0.377-0.302c2.344,0.143,4.597,1.033,6.533,2.329c0.121,0.075,0.242,0.158,0.303,0.293
	c0.941,1.869,1.672,3.844,2.238,5.864c0.715,2.615,1.145,5.321,1.131,8.034c-0.438,0.732-1.08,1.326-1.758,1.846
	c-1.574,1.191-3.563,1.742-5.523,1.764c-0.527-0.623-1.055-1.25-1.574-1.875c1.695-0.469,3.293-1.447,4.279-2.926
	c-1.605,1.441-3.73,2.127-5.817,2.512c-2.946,0.496-6.022,0.406-8.908-0.424c-1.446-0.42-2.856-1.076-3.986-2.094
	c0.964,1.477,2.562,2.418,4.22,2.932c-0.572,0.625-1.152,1.258-1.733,1.885c-1.959-0.023-3.949-0.582-5.524-1.773
	c-0.641-0.473-1.213-1.039-1.673-1.695c-0.128-0.143-0.083-0.346-0.083-0.52c0.053-3.324,0.708-6.617,1.786-9.752
	c0.452-1.304,0.979-2.592,1.613-3.821C20.485,21.819,20.583,21.758,20.667,21.699 M26.289,28.375
	c-1.018,0.113-1.877,0.942-2.111,1.93c-0.278,1.046,0.129,2.253,1.033,2.871c0.58,0.416,1.349,0.543,2.027,0.34
	c0.761-0.219,1.371-0.836,1.643-1.574c0.362-0.951,0.135-2.104-0.572-2.835C27.796,28.564,27.027,28.278,26.289,28.375
	 M35.008,28.375c-0.482,0.053-0.934,0.271-1.296,0.588c-0.874,0.753-1.138,2.095-0.664,3.142c0.393,0.928,1.38,1.592,2.397,1.508
	c0.866-0.045,1.658-0.617,2.035-1.395c0.49-0.963,0.338-2.223-0.385-3.029C36.583,28.594,35.784,28.278,35.008,28.375L35.008,28.375
	z"/>
<linearGradient id="SVGID_6_" gradientUnits="userSpaceOnUse" x1="17.0259" y1="29.4092" x2="45.1152" y2="29.4092">
	<stop  offset="0" style="stop-color:#ffae5a"/>
	<stop  offset="1" style="stop-color:#ffae5a"/>
</linearGradient>
<path fill="url(#SVGID_6_)" d="M20.667,21.699c1.952-1.312,4.22-2.216,6.579-2.359c0.075,0.098,0.15,0.204,0.226,0.302
	c-1.342,0.377-2.653,0.867-3.881,1.522c-0.836,0.452-1.643,0.965-2.336,1.613c1.296-0.844,2.759-1.409,4.258-1.786
	c3.075-0.761,6.309-0.859,9.436-0.399c2.133,0.339,4.297,0.927,6.066,2.208c-0.346-0.347-0.768-0.61-1.175-0.882
	c-1.644-1.024-3.444-1.778-5.306-2.275c0.128-0.105,0.256-0.204,0.377-0.302c2.344,0.143,4.597,1.033,6.533,2.329
	c0.121,0.075,0.242,0.158,0.303,0.293c0.941,1.869,1.672,3.844,2.238,5.864c0.715,2.615,1.145,5.32,1.131,8.033
	c-0.438,0.732-1.08,1.326-1.758,1.846c-1.574,1.191-3.563,1.742-5.523,1.764c-0.527-0.623-1.055-1.25-1.574-1.875
	c1.695-0.469,3.293-1.447,4.279-2.925c-1.605,1.44-3.73,2.126-5.817,2.511c-2.946,0.496-6.022,0.406-8.908-0.424
	c-1.447-0.42-2.856-1.076-3.986-2.094c0.964,1.477,2.562,2.418,4.22,2.932c-0.573,0.625-1.153,1.258-1.734,1.885
	c-1.959-0.023-3.949-0.582-5.524-1.773c-0.641-0.473-1.213-1.039-1.673-1.695c-0.128-0.143-0.083-0.346-0.083-0.52
	c0.053-3.323,0.708-6.617,1.786-9.752c0.452-1.304,0.979-2.592,1.613-3.821C20.485,21.819,20.583,21.759,20.667,21.699
	 M26.289,28.376c-1.018,0.113-1.877,0.942-2.111,1.93c-0.279,1.047,0.128,2.253,1.032,2.87c0.581,0.416,1.349,0.544,2.028,0.341
	c0.761-0.22,1.372-0.837,1.643-1.575c0.362-0.95,0.135-2.104-0.573-2.834C27.796,28.564,27.027,28.278,26.289,28.376 M35.008,28.376
	c-0.482,0.053-0.934,0.271-1.296,0.588c-0.874,0.753-1.138,2.096-0.664,3.143c0.393,0.927,1.38,1.591,2.397,1.507
	c0.866-0.044,1.658-0.617,2.035-1.394c0.49-0.964,0.338-2.223-0.385-3.03C36.583,28.595,35.784,28.278,35.008,28.376L35.008,28.376z
	"/>
</svg>
