<?xml version="1.0" encoding="utf-8"?>
<!-- Generator: Adobe Illustrator 16.0.0, SVG Export Plug-In . SVG Version: 6.00 Build 0)  -->
<!DOCTYPE svg PUBLIC "-//W3C//DTD SVG 1.1//EN" "http://www.w3.org/Graphics/SVG/1.1/DTD/svg11.dtd">
<svg version="1.1" id="Layer_1" xmlns="http://www.w3.org/2000/svg" xmlns:xlink="http://www.w3.org/1999/xlink" x="0px" y="0px"
	 width="60px" height="60px" viewBox="0 0 60 60" enable-background="new 0 0 60 60" xml:space="preserve">
<circle fill="#FFFFFF" cx="29.979" cy="29.762" r="22.619"/>
<g>
	<linearGradient id="SVGID_1_" gradientUnits="userSpaceOnUse" x1="-4.882812e-04" y1="30" x2="60" y2="30">
		<stop  offset="0" style="stop-color:#ffae5a"/>
		<stop  offset="0.5595" style="stop-color:#ffae5a"/>
		<stop  offset="1" style="stop-color:#ffae5a"/>
	</linearGradient>
	<path fill="url(#SVGID_1_)" d="M30,60C13.458,60,0,46.542,0,30S13.458,0,30,0c16.542,0,30,13.458,30,30S46.541,60,30,60z M30,3.333
		C15.295,3.333,3.333,15.296,3.333,30S15.295,56.667,30,56.667c14.704,0,26.667-11.963,26.667-26.667S44.703,3.333,30,3.333z"/>
</g>
<g>
	<g>
		<linearGradient id="SVGID_2_" gradientUnits="userSpaceOnUse" x1="16.0405" y1="30.4766" x2="43.2305" y2="30.4766">
			<stop  offset="0" style="stop-color:#ffae5a"/>
			<stop  offset="0.4405" style="stop-color:#ffae5a"/>
			<stop  offset="1" style="stop-color:#ffae5a"/>
		</linearGradient>
		<path opacity="0.1" fill="url(#SVGID_2_)" d="M43.156,25.301c-0.027-1.155-0.244-2.288-0.652-3.373
			c-0.754-1.978-2.32-3.544-4.303-4.299c-1.082-0.406-2.217-0.625-3.373-0.651c-1.383-0.059-1.846-0.073-5.169-0.073h-0.455
			l-0.047,0.047c-2.972,0-3.439,0.004-4.721,0.074c-1.155,0.026-2.288,0.245-3.373,0.652c-1.978,0.754-3.544,2.32-4.3,4.303
			c-0.406,1.083-0.625,2.219-0.65,3.374c-0.06,1.377-0.074,1.838-0.074,5.169c0,3.397,0,3.834,0.074,5.178
			c0.047,1.146,0.284,2.269,0.699,3.323c0.753,1.978,2.32,3.544,4.303,4.299c1.083,0.406,2.218,0.625,3.374,0.651
			c1.377,0.059,1.838,0.073,5.169,0.073c3.382,0,3.831,0,5.175-0.074c1.154-0.026,2.287-0.244,3.373-0.652
			c1.977-0.753,3.543-2.319,4.299-4.302c0.406-1.082,0.625-2.218,0.65-3.375c0.061-1.377,0.074-1.839,0.074-5.168
			C43.23,27.094,43.23,26.646,43.156,25.301z M38.65,25.457l0.002,0.043c0.061,1.268,0.072,1.614,0.072,4.981
			c0,3.341,0,3.689-0.072,4.973l-0.002,0.052c-0.006,0.664-0.127,1.315-0.355,1.926c-0.307,0.793-0.939,1.426-1.721,1.729
			c-0.623,0.233-1.273,0.354-1.938,0.359l-0.043,0.001c-1.273,0.061-1.619,0.072-4.982,0.072c-3.34,0-3.689,0-4.972-0.072
			l-0.052-0.001c-0.66-0.006-1.308-0.125-1.927-0.355c-0.782-0.314-1.403-0.946-1.702-1.727c-0.233-0.622-0.354-1.274-0.359-1.938
			l-0.001-0.043c-0.061-1.272-0.072-1.619-0.072-4.981c0-3.341,0-3.69,0.071-4.974l0.002-0.051c0.006-0.664,0.126-1.316,0.353-1.92
			c0.309-0.782,0.934-1.407,1.698-1.709c0.622-0.232,1.274-0.353,1.938-0.359l0.043-0.001c1.268-0.061,1.614-0.072,4.981-0.072
			v-0.021c3.341,0,3.689,0,4.972,0.071l0.053,0.001c0.182,0.002,0.363,0.014,0.543,0.033c-0.893,0.41-1.516,1.311-1.516,2.356
			c0,0.125,0.012,0.248,0.029,0.369c-1.174-0.768-2.576-1.215-4.082-1.215c-4.13,0-7.491,3.361-7.491,7.492
			c0,4.13,3.36,7.491,7.491,7.491s7.49-3.361,7.49-7.491c0-1.505-0.447-2.907-1.213-4.083c0.119,0.018,0.242,0.03,0.369,0.03
			c1.047,0,1.949-0.626,2.359-1.523C38.637,25.085,38.648,25.271,38.65,25.457z M32.665,30.477c0,1.683-1.37,3.053-3.053,3.053
			s-3.053-1.37-3.053-3.053c0-1.684,1.37-3.053,3.053-3.053S32.665,28.793,32.665,30.477z"/>
		<g opacity="0.2">
			<linearGradient id="SVGID_3_" gradientUnits="userSpaceOnUse" x1="16.5889" y1="30.4761" x2="42.6816" y2="30.4761">
				<stop  offset="0" style="stop-color:#ffae5a"/>
				<stop  offset="0.4405" style="stop-color:#ffae5a"/>
				<stop  offset="1" style="stop-color:#ffae5a"/>
			</linearGradient>
			<path fill="url(#SVGID_3_)" d="M42.607,25.332c-0.021-1.099-0.229-2.178-0.615-3.208c-0.699-1.832-2.148-3.283-3.982-3.981
				c-1.029-0.386-2.107-0.593-3.193-0.615c-1.312-0.057-1.709-0.074-5.157-0.074h-0.227L29.385,17.5
				c-3.177,0-3.623,0.002-4.917,0.073c-1.099,0.023-2.178,0.23-3.208,0.617c-1.832,0.698-3.283,2.148-3.981,3.983
				c-0.386,1.029-0.593,2.108-0.615,3.193c-0.06,1.377-0.074,1.828-0.074,5.157c0,3.384,0,3.819,0.074,5.155
				c0.044,1.085,0.269,2.147,0.664,3.15c0.698,1.832,2.148,3.282,3.982,3.981c1.029,0.386,2.107,0.593,3.193,0.615
				c1.376,0.06,1.828,0.073,5.157,0.073c3.384,0,3.819,0,5.144-0.073c1.1-0.022,2.178-0.229,3.209-0.616
				c1.832-0.698,3.281-2.148,3.98-3.982c0.387-1.028,0.594-2.107,0.615-3.193c0.061-1.378,0.074-1.83,0.074-5.157
				C42.682,27.092,42.682,26.657,42.607,25.332z M39.271,30.481c0,3.283,0,3.705-0.072,5.003v0.026
				c-0.006,0.729-0.139,1.443-0.393,2.119c-0.363,0.937-1.109,1.683-2.041,2.045c-0.682,0.255-1.396,0.388-2.146,0.395
				c-1.283,0.062-1.631,0.073-5.007,0.073c-3.354,0-3.705,0-5.003-0.073l-0.026-0.001c-0.728-0.006-1.443-0.139-2.115-0.39
				c-0.929-0.37-1.667-1.118-2.023-2.048c-0.255-0.683-0.388-1.397-0.395-2.146c-0.061-1.284-0.072-1.633-0.072-5.008
				c0-3.284,0-3.705,0.072-5.003l0.001-0.026c0.006-0.728,0.139-1.443,0.391-2.116c0.363-0.923,1.101-1.661,2.015-2.021
				c0.683-0.255,1.397-0.388,2.147-0.395c1.279-0.061,1.627-0.072,5.008-0.072v-0.021c3.283,0,3.705,0,5.003,0.072l0.025,0
				c0.729,0.007,1.443,0.14,2.119,0.392c0.938,0.364,1.684,1.11,2.045,2.041c0.256,0.682,0.389,1.397,0.395,2.147
				C39.262,26.753,39.271,27.101,39.271,30.481z"/>
			<path fill="#FFFFFF" d="M29.612,23.533c-3.828,0-6.942,3.115-6.942,6.943c0,3.828,3.114,6.942,6.942,6.942
				c3.828,0,6.943-3.114,6.943-6.942C36.555,26.648,33.439,23.533,29.612,23.533z M33.213,30.477c0,1.985-1.615,3.601-3.601,3.601
				c-1.985,0-3.601-1.615-3.601-3.601c0-1.986,1.616-3.602,3.601-3.602C31.598,26.875,33.213,28.491,33.213,30.477z"/>
			<circle fill="#FFFFFF" cx="36.258" cy="23.83" r="2.045"/>
		</g>
	</g>
	<g>
		<linearGradient id="SVGID_4_" gradientUnits="userSpaceOnUse" x1="17.1372" y1="30.4766" x2="42.1328" y2="30.4766">
			<stop  offset="0" style="stop-color:#ffae5a"/>
			<stop  offset="0.4405" style="stop-color:#ffae5a"/>
			<stop  offset="1" style="stop-color:#ffae5a"/>
		</linearGradient>
		<path fill="url(#SVGID_4_)" d="M29.612,20.272c3.321,0,3.72,0,5.034,0.073c0.789,0.007,1.572,0.152,2.312,0.429
			c1.082,0.42,1.939,1.277,2.359,2.36c0.277,0.74,0.422,1.522,0.43,2.312c0.062,1.314,0.072,1.711,0.072,5.034
			c0,3.322,0,3.721-0.072,5.034c-0.008,0.79-0.152,1.573-0.43,2.312c-0.42,1.083-1.277,1.939-2.359,2.359
			c-0.74,0.277-1.523,0.423-2.312,0.43c-1.314,0.062-1.707,0.073-5.034,0.073c-3.329,0-3.721,0-5.034-0.073
			c-0.79-0.007-1.573-0.152-2.313-0.43c-1.074-0.428-1.92-1.285-2.333-2.364c-0.277-0.74-0.422-1.523-0.429-2.313
			c-0.063-1.313-0.073-1.711-0.073-5.033c0-3.323,0-3.721,0.073-5.034c0.007-0.79,0.152-1.573,0.429-2.312
			c0.42-1.068,1.266-1.914,2.333-2.334c0.74-0.277,1.523-0.422,2.313-0.43c1.313-0.062,1.711-0.073,5.034-0.073 M29.612,18.049
			c-3.381,0-3.805,0-5.134,0.073c-1.033,0.021-2.056,0.218-3.024,0.581c-1.688,0.643-3.021,1.976-3.663,3.663
			c-0.363,0.968-0.56,1.99-0.581,3.024c-0.058,1.329-0.073,1.753-0.073,5.133c0,3.381,0,3.804,0.073,5.133
			c0.042,1.021,0.254,2.027,0.628,2.978c0.643,1.688,1.976,3.021,3.663,3.663c0.968,0.363,1.991,0.56,3.024,0.581
			c1.329,0.058,1.753,0.073,5.133,0.073c3.38,0,3.804,0,5.134-0.073c1.033-0.021,2.055-0.218,3.023-0.581
			c1.688-0.643,3.02-1.976,3.662-3.663c0.363-0.968,0.561-1.99,0.582-3.024c0.057-1.329,0.072-1.753,0.072-5.133
			c0-3.381,0-3.805-0.072-5.134c-0.021-1.033-0.219-2.056-0.582-3.024c-0.643-1.688-1.975-3.02-3.662-3.663
			c-0.969-0.363-1.99-0.56-3.023-0.581c-1.33-0.058-1.754-0.073-5.134-0.073L29.612,18.049z"/>
		<linearGradient id="SVGID_5_" gradientUnits="userSpaceOnUse" x1="23.2178" y1="30.4766" x2="36.0059" y2="30.4766">
			<stop  offset="0" style="stop-color:#ffae5a"/>
			<stop  offset="0.4405" style="stop-color:#ffae5a"/>
			<stop  offset="1" style="stop-color:#ffae5a"/>
		</linearGradient>
		<path fill="url(#SVGID_5_)" d="M29.612,24.082c-3.532,0-6.395,2.863-6.395,6.395c0,3.531,2.863,6.395,6.395,6.395
			c3.53,0,6.394-2.863,6.394-6.395C36.006,26.945,33.143,24.082,29.612,24.082L29.612,24.082z M29.612,34.626
			c-2.292,0-4.15-1.858-4.15-4.149c0-2.292,1.858-4.15,4.15-4.15s4.149,1.858,4.149,4.15l0,0
			C33.762,32.768,31.904,34.626,29.612,34.626z"/>
		<linearGradient id="SVGID_6_" gradientUnits="userSpaceOnUse" x1="34.7617" y1="23.8306" x2="37.7539" y2="23.8306">
			<stop  offset="0" style="stop-color:#ffae5a"/>
			<stop  offset="0.4405" style="stop-color:#ffae5a"/>
			<stop  offset="1" style="stop-color:#ffae5a"/>
		</linearGradient>
		<circle fill="url(#SVGID_6_)" cx="36.258" cy="23.831" r="1.497"/>
	</g>
</g>
</svg>
