<?xml version="1.0" encoding="utf-8"?>
<!-- Generator: Adobe Illustrator 16.0.0, SVG Export Plug-In . SVG Version: 6.00 Build 0)  -->
<!DOCTYPE svg PUBLIC "-//W3C//DTD SVG 1.1//EN" "http://www.w3.org/Graphics/SVG/1.1/DTD/svg11.dtd">
<svg version="1.1" id="Layer_1" xmlns="http://www.w3.org/2000/svg" xmlns:xlink="http://www.w3.org/1999/xlink" x="0px" y="0px"
	 width="60px" height="60px" viewBox="0 0 60 60" enable-background="new 0 0 60 60" xml:space="preserve">
<circle fill="#FFFFFF" cx="29.979" cy="29.524" r="22.619"/>
<g>
	
		<linearGradient id="SVGID_1_" gradientUnits="userSpaceOnUse" x1="242.4102" y1="-334.8516" x2="302.4102" y2="-334.8516" gradientTransform="matrix(1 0 0 -1 -242.4102 -305.0898)">
		<stop  offset="0" style="stop-color:#ffae5a"/>
		<stop  offset="0.4408" style="stop-color:#ffae5a"/>
		<stop  offset="1" style="stop-color:#ffae5a"/>
	</linearGradient>
	<path fill="url(#SVGID_1_)" d="M30,59.762c-16.542,0-30-13.457-30-30c0-16.542,13.458-30,30-30c16.543,0,30,13.458,30,30
		C60,46.305,46.543,59.762,30,59.762z M30,3.095c-14.704,0-26.667,11.962-26.667,26.667C3.333,44.467,15.295,56.43,30,56.43
		s26.666-11.963,26.666-26.667C56.666,15.058,44.704,3.095,30,3.095z"/>
</g>
<g>
	<linearGradient id="SVGID_2_" gradientUnits="userSpaceOnUse" x1="14.6616" y1="30.0005" x2="32.0391" y2="30.0005">
		<stop  offset="0" style="stop-color:#ffae5a"/>
		<stop  offset="0.4408" style="stop-color:#ffae5a"/>
		<stop  offset="1" style="stop-color:#ffae5a"/>
	</linearGradient>
	<path fill="url(#SVGID_2_)" d="M22.634,21.341c1.509-0.127,3.048,0.151,4.416,0.798c1.474,0.688,2.742,1.804,3.617,3.174
		c0.793,1.235,1.265,2.674,1.354,4.138c0.118,1.794-0.344,3.619-1.298,5.143c-0.774,1.248-1.874,2.293-3.159,3.002
		c-1.7,0.949-3.726,1.301-5.646,0.973c-1.525-0.25-2.979-0.924-4.162-1.92c-1.141-0.959-2.029-2.217-2.547-3.614
		c-0.552-1.472-0.691-3.097-0.398-4.642c0.316-1.694,1.152-3.288,2.368-4.509C18.618,22.423,20.59,21.504,22.634,21.341z"/>
	<linearGradient id="SVGID_3_" gradientUnits="userSpaceOnUse" x1="32.707" y1="29.998" x2="41.6104" y2="29.998">
		<stop  offset="0" style="stop-color:#ffae5a"/>
		<stop  offset="0.4408" style="stop-color:#ffae5a"/>
		<stop  offset="1" style="stop-color:#ffae5a"/>
	</linearGradient>
	<path fill="url(#SVGID_3_)" d="M36.896,21.745c0.612-0.07,1.233,0.121,1.742,0.457c0.619,0.409,1.1,0.995,1.48,1.625
		c0.812,1.359,1.215,2.924,1.398,4.485c0.219,2.03,0.061,4.116-0.58,6.061c-0.299,0.888-0.708,1.748-1.29,2.484
		c-0.418,0.523-0.938,0.984-1.565,1.232c-0.561,0.227-1.203,0.236-1.771,0.029c-0.605-0.219-1.117-0.641-1.531-1.127
		c-0.56-0.66-0.963-1.438-1.27-2.242c-0.658-1.771-0.878-3.684-0.783-5.562c0.07-1.298,0.297-2.592,0.74-3.817
		c0.283-0.771,0.652-1.52,1.157-2.171C35.183,22.477,35.963,21.851,36.896,21.745z"/>
	<linearGradient id="SVGID_4_" gradientUnits="userSpaceOnUse" x1="42.1104" y1="30" x2="45.3379" y2="30">
		<stop  offset="0" style="stop-color:#ffae5a"/>
		<stop  offset="0.4408" style="stop-color:#ffae5a"/>
		<stop  offset="1" style="stop-color:#ffae5a"/>
	</linearGradient>
	<path fill="url(#SVGID_4_)" d="M43.6,22.594c0.173-0.068,0.358,0.027,0.475,0.155c0.237,0.255,0.371,0.584,0.488,0.907
		c0.299,0.861,0.446,1.766,0.563,2.667c0.25,2.098,0.271,4.222,0.104,6.329c-0.086,1.004-0.213,2.008-0.456,2.986
		c-0.121,0.465-0.259,0.932-0.501,1.348c-0.113,0.182-0.255,0.377-0.473,0.436c-0.208,0.045-0.386-0.109-0.505-0.26
		c-0.243-0.318-0.377-0.705-0.499-1.082c-0.283-0.941-0.427-1.919-0.53-2.895c-0.2-2.014-0.206-4.046-0.03-6.062
		c0.096-1.015,0.233-2.03,0.505-3.014c0.115-0.396,0.245-0.794,0.466-1.146C43.307,22.813,43.426,22.659,43.6,22.594z"/>
</g>
</svg>
