<?xml version="1.0" encoding="utf-8"?>
<!-- Generator: Adobe Illustrator 16.0.0, SVG Export Plug-In . SVG Version: 6.00 Build 0)  -->
<!DOCTYPE svg PUBLIC "-//W3C//DTD SVG 1.1//EN" "http://www.w3.org/Graphics/SVG/1.1/DTD/svg11.dtd">
<svg version="1.1" id="Layer_1" xmlns="http://www.w3.org/2000/svg" xmlns:xlink="http://www.w3.org/1999/xlink" x="0px" y="0px"
	 width="60px" height="60px" viewBox="0 0 60 60" enable-background="new 0 0 60 60" xml:space="preserve">
<circle fill="#FFFFFF" cx="29.979" cy="29.762" r="22.619"/>
<g>
	<linearGradient id="SVGID_1_" gradientUnits="userSpaceOnUse" x1="0" y1="30" x2="60" y2="30">
		<stop  offset="0" style="stop-color:#ffae5a"/>
		<stop  offset="0.4405" style="stop-color:#ffae5a"/>
		<stop  offset="1" style="stop-color:#ffae5a"/>
	</linearGradient>
	<path fill="url(#SVGID_1_)" d="M30,60C13.458,60,0,46.543,0,30C0,13.458,13.458,0,30,0c16.542,0,30,13.458,30,30
		C60,46.543,46.542,60,30,60z M30,3.334C15.296,3.334,3.333,15.296,3.333,30c0,14.705,11.962,26.668,26.667,26.668
		S56.667,44.705,56.667,30C56.667,15.296,44.704,3.334,30,3.334z"/>
</g>
<linearGradient id="SVGID_2_" gradientUnits="userSpaceOnUse" x1="13.7061" y1="30" x2="47.4609" y2="30">
	<stop  offset="0" style="stop-color:#ffae5a"/>
	<stop  offset="0.4405" style="stop-color:#ffae5a"/>
	<stop  offset="1" style="stop-color:#ffae5a"/>
</linearGradient>
<path opacity="0.1" fill="url(#SVGID_2_)" d="M44.552,21.124c0.058-0.142,0.109-0.287,0.156-0.434l0.903-2.833l-2.557,1.519
	c-0.771,0.458-1.595,0.801-2.456,1.026c-1.166-1.006-2.671-1.573-4.222-1.573c-3.539,0-6.42,2.866-6.445,6.398
	c-3.436-0.505-6.594-2.287-8.813-5.01l-1.032-1.266l-0.82,1.412c-0.571,0.981-0.872,2.103-0.872,3.241
	c0,0.707,0.115,1.397,0.332,2.049l-0.376-0.208v1.985c0,1.487,0.514,2.878,1.385,3.986l0.532,1.662
	c0.529,1.654,1.685,2.98,3.158,3.748c-1.497,0.633-3.148,0.877-4.856,0.678l-4.863-0.568l4.123,2.643
	c2.621,1.678,5.649,2.564,8.759,2.564c10.174,0,16.253-8.264,16.253-16.252c0-0.047-0.001-0.094-0.001-0.14
	c0.943-0.757,1.765-1.653,2.446-2.671l2.175-3.247L44.552,21.124z"/>
<linearGradient id="SVGID_3_" gradientUnits="userSpaceOnUse" x1="16.0723" y1="30.3403" x2="45.9033" y2="30.3403">
	<stop  offset="0" style="stop-color:#ffae5a"/>
	<stop  offset="0.4405" style="stop-color:#ffae5a"/>
	<stop  offset="1" style="stop-color:#ffae5a"/>
</linearGradient>
<path opacity="0.2" fill="url(#SVGID_3_)" d="M44.118,21.935c-0.28,0.125-0.565,0.236-0.856,0.333
	c0.397-0.524,0.705-1.114,0.908-1.749l0.451-1.417l-1.278,0.759c-0.905,0.537-1.88,0.927-2.902,1.16
	c-1.089-1.038-2.552-1.627-4.063-1.627c-3.243,0-5.881,2.638-5.881,5.88c0,0.199,0.01,0.397,0.029,0.594
	c-3.834-0.38-7.391-2.284-9.846-5.295l-0.516-0.632l-0.41,0.706c-0.521,0.896-0.796,1.918-0.796,2.958
	c0,1.245,0.39,2.433,1.09,3.415c-0.1-0.046-0.198-0.097-0.294-0.15l-0.839-0.465v1.026c0,1.901,0.92,3.632,2.37,4.716l-0.77-0.148
	l0.29,0.906c0.61,1.906,2.131,3.336,3.996,3.863c-1.873,1.094-4.042,1.561-6.297,1.297l-2.432-0.283l2.062,1.32
	c2.529,1.621,5.453,2.477,8.454,2.477c9.82,0,15.688-7.977,15.688-15.688c0-0.137-0.002-0.274-0.006-0.411
	c0.99-0.756,1.846-1.667,2.547-2.714l1.087-1.624L44.118,21.935z"/>
<linearGradient id="SVGID_4_" gradientUnits="userSpaceOnUse" x1="18.4385" y1="30.4863" x2="44.3467" y2="30.4863">
	<stop  offset="0" style="stop-color:#ffae5a"/>
	<stop  offset="0.4405" style="stop-color:#ffae5a"/>
	<stop  offset="1" style="stop-color:#ffae5a"/>
</linearGradient>
<path fill="url(#SVGID_4_)" d="M44.347,22.451c-0.953,0.423-1.978,0.709-3.053,0.837c1.098-0.658,1.941-1.699,2.338-2.94
	c-1.026,0.609-2.163,1.053-3.375,1.291c-0.97-1.034-2.352-1.679-3.88-1.679c-2.936,0-5.316,2.381-5.316,5.316
	c0,0.417,0.047,0.822,0.137,1.211c-4.417-0.221-8.333-2.337-10.955-5.554c-0.457,0.786-0.719,1.699-0.719,2.673
	c0,1.843,0.938,3.471,2.364,4.424c-0.871-0.027-1.69-0.268-2.407-0.665v0.067c0,2.576,1.833,4.724,4.264,5.212
	c-0.446,0.121-0.917,0.188-1.401,0.188c-0.342,0-0.676-0.035-1-0.098c0.676,2.113,2.639,3.648,4.964,3.693
	c-1.818,1.426-4.109,2.275-6.602,2.275c-0.428,0-0.851-0.027-1.267-0.074c2.353,1.506,5.146,2.387,8.149,2.387
	c9.776,0,15.122-8.098,15.122-15.123c0-0.23-0.005-0.459-0.014-0.689C42.732,24.454,43.633,23.518,44.347,22.451z"/>
</svg>
